<?xml version="1.0" encoding="utf-8"?>
<!-- Generator: Adobe Illustrator 16.0.0, SVG Export Plug-In . SVG Version: 6.00 Build 0)  -->
<!DOCTYPE svg PUBLIC "-//W3C//DTD SVG 1.1//EN" "http://www.w3.org/Graphics/SVG/1.1/DTD/svg11.dtd">
<svg version="1.1" id="Layer_1" xmlns="http://www.w3.org/2000/svg" xmlns:xlink="http://www.w3.org/1999/xlink" x="0px" y="0px"
	 width="693.672px" height="390px" viewBox="0 0 693.672 390" enable-background="new 0 0 693.672 390" xml:space="preserve">
<g id="musica" display="none">
	<path display="inline" d="M406.442,151.741c-6.96,0-12.771,2.16-16.771,4.44v34.679c0,13.439,7.171,15,14.61,15
		c11.04,0,20.279-9.84,20.279-28.319C424.562,160.981,418.322,151.741,406.442,151.741z"/>
	<path display="inline" d="M-59.328-70v531h812V-70H-59.328z M359.975,131.103c3.24,0,5.88,2.64,5.88,5.52s-2.64,5.4-5.88,5.4
		c-3.12,0-5.88-2.52-5.88-5.4S356.855,131.103,359.975,131.103z M220.297,225l-36.839-114h-6.786v-2h22v2h-6.454l32.399,100.107
		l27.839-87.101c10.799-33.959,23.159-43.61,36.479-43.61c9.24,0,19.079,5.854,19.079,14.853c0,4.44-2.76,9.107-7.56,9.107
		c-3.84,0-6.36-3.006-6.36-5.646c0-4.68,5.04-6.123,5.04-8.882c0-4.8-5.28-7.682-10.92-7.682c-14.279,0-24.839,15.57-33.838,43.888
		L222.816,225H220.297z M277.964,157.621c-1.08,0-2.014,0.24-4.414,1.32l-0.439-1.44l14.56-7.68V205h7v2h-21v-2h7v-33.819
		C280.672,160.141,279.645,157.621,277.964,157.621z M277.537,136.622c0-2.88,2.76-5.52,5.879-5.52c3.24,0,5.88,2.64,5.88,5.52
		s-2.64,5.4-5.88,5.4C280.297,142.022,277.537,139.502,277.537,136.622z M302.257,314.095c-30.959,0-48.238-22.199-48.238-44.758
		c0-21.959,15.959-36.719,29.039-36.719c5.52,0,10.2,3.12,10.2,8.159c0,4.32-3.6,7.561-7.56,7.561c-6.359,0-4.439-9-11.039-9
		c-6.72,0-18.359,10.68-18.359,29.759c0,22.799,17.999,43.078,45.598,43.078c26.039,0,53.038-16.919,53.038-52.918
		c0-47.278-54.357-70.557-54.357-92.636c0-9.48,8.279-16.8,19.319-16.8c6.6,0,10.08,3.029,14.399,3.029
		c2.04,0,3.24-1.851,3.24-5.851h2.04l0.12,24.09l-2.28-0.195c0-9.719-6.96-19.296-17.639-19.296c-5.52,0-12.84,2.171-12.84,11.651
		c0,18.839,53.758,44.884,53.758,91.322C360.694,290.93,332.616,314.095,302.257,314.095z M370.672,207h-21v-2h7v-33.819
		c0-11.04-0.749-13.56-2.429-13.56c-1.08,0-1.874,0.24-4.274,1.32l-0.148-1.44l14.851-7.68V205h6V207z M402.814,207.659
		c-7.56,0-12.719-2.88-15.959-7.08c-2.52,4.2-6.6,6.12-11.279,7.08l-0.231-1.44c5.04-1.2,7.328-2.4,7.328-14.879V97.624
		c0-8.759-0.968-13.679-3.369-13.679c-0.36,0-0.844,0.12-1.204,0.24l-2.703,1.08l-0.122-1.56l14.397-7.919v78.357
		c4-2.28,10.051-4.32,17.131-4.32c16.439,0,26.204,11.28,26.204,26.759C433.007,193.14,420.213,207.659,402.814,207.659z
		 M459.672,207h-21v-2h7V97.504c0-11.04-0.909-13.56-2.588-13.56c-1.08,0-1.955,0.24-4.355,1.32l-0.528-1.44l14.471-7.92V205h7V207z
		 M494.612,207.659c-11.399,0-28.799-5.64-28.799-27.839c0-20.039,13.919-29.81,27.238-29.81c17.64,0,21.6,12.989,21.6,22.989
		h-33.979v-2h20.899c3.601,0,3.96-2.489,3.96-5.01c0-6.839-3.96-14.264-12.839-14.264c-9.72,0-18.359,7.027-18.359,26.466
		c0,22.199,11.76,27.573,21.839,27.573c9,0,14.88-3.133,18.119-5.053l1.08,1.553C511.892,204.306,506.132,207.659,494.612,207.659z"
		/>
</g>
<g id="myriad_pro" display="none">
	<path display="inline" d="M424.236,179.34c-4.801,0-8.903,1.77-12.382,5.31c-3.48,3.541-5.182,8.131-5.182,13.77v11.52
		c0,5.94,1.792,10.485,5.452,13.635c3.659,3.15,7.69,4.726,12.131,4.726c6.12,0,10.939-2.19,14.48-6.57
		c3.539-4.379,5.305-10.409,5.305-18.09c0-7.319-1.757-13.199-5.267-17.64C435.263,181.56,430.415,179.34,424.236,179.34z"/>
	<path display="inline" d="M578.674,176.459c-4.801,0-8.775,1.646-11.926,4.855c-3.15,3.211-5.115,7.686-5.895,12.686h33.84
		c0-4-1.215-8.125-3.645-11.875C588.619,178.376,584.492,176.459,578.674,176.459z"/>
	<path display="inline" d="M-31.328-23v442h766V-23H-31.328z M142.719,248h-32.76l-40.32-121h30.6c16.86,56,25.799,87,26.82,94h0.36
		c2.88-12,6.87-27.229,11.97-43.49L155.5,127h29.52L142.719,248z M225.672,248h-28v-88h28V248z M222.817,144.419
		c-2.88,2.761-6.66,4.14-11.34,4.14c-4.68,0-8.46-1.379-11.34-4.14c-2.88-2.759-4.32-6.239-4.32-10.44
		c0-4.199,1.454-7.679,4.365-10.44c2.91-2.759,6.674-4.14,11.295-4.14c4.619,0,8.384,1.381,11.295,4.14
		c2.909,2.761,4.365,6.241,4.365,10.44C227.137,138.18,225.697,141.661,222.817,144.419z M300.937,242.295
		c-6.84,5.189-16.38,7.785-28.62,7.785c-11.281,0-21.121-2.1-29.52-6.301l5.04-19.8c3.24,1.86,7.214,3.436,11.925,4.726
		c4.709,1.291,8.895,1.935,12.555,1.935c8.04,0,12.06-2.399,12.06-7.2c0-2.399-0.976-4.259-2.925-5.58
		c-1.95-1.319-5.416-2.759-10.395-4.32c-17.28-5.339-25.92-14.099-25.92-26.28c0-8.46,3.375-15.435,10.125-20.925
		c6.75-5.49,15.615-8.235,26.595-8.235c9.599,0,18.119,1.741,25.56,5.22l-4.86,19.08c-6.961-3.359-13.561-5.04-19.8-5.04
		c-7.2,0-10.8,2.34-10.8,7.02c0,2.101,1.094,3.87,3.285,5.31c2.189,1.44,6.015,3.031,11.475,4.77
		c8.399,2.641,14.58,6.136,18.54,10.485c3.96,4.351,5.94,9.855,5.94,16.515C311.197,230.16,307.777,237.105,300.937,242.295z
		 M356.672,248h-28v-88h28V248z M353.676,144.419c-2.88,2.761-6.66,4.14-11.34,4.14c-4.68,0-8.46-1.379-11.34-4.14
		c-2.88-2.759-4.32-6.239-4.32-10.44c0-4.199,1.454-7.679,4.365-10.44c2.91-2.759,6.674-4.14,11.295-4.14
		c4.619,0,8.384,1.381,11.295,4.14c2.909,2.761,4.365,6.241,4.365,10.44C357.996,138.18,356.556,141.661,353.676,144.419z
		 M466.986,227.084c-3.541,7.291-8.565,12.947-15.075,16.966c-6.511,4.021-13.576,6.19-21.195,6.19c-12.48,0-21.66-5.24-27.54-14.24
		h-0.36l-1.26,12h-23.58c0.479-8,0.696-16.641,0.696-26.36V120h28v51h0.284c6.12-9,15.359-12.84,27.72-12.84
		c10.98,0,19.994,4.065,27.045,12.255c7.05,8.19,10.575,18.9,10.575,32.16C472.295,211.635,470.525,219.794,466.986,227.084z
		 M517.672,248h-28V120h28V248z M619.533,213h-58.5c0.48,5,3.105,9.285,7.875,12.195s10.725,4.364,17.865,4.364
		c9.119,0,17.52-1.26,25.199-3.78l3.602,18.541c-9.121,3.838-20.041,5.76-32.762,5.76c-15.061,0-26.863-4.02-35.414-12.061
		c-8.551-8.039-12.824-19.02-12.824-32.94c0-12.78,4.107-23.805,12.328-33.075s19.291-13.905,33.211-13.905
		c12.84,0,22.799,4.14,29.881,12.42c7.078,8.28,10.619,18.9,10.619,31.86C620.613,206.641,620.254,210,619.533,213z"/>
</g>
<g id="impact" display="none">
	<path display="inline" d="M557.786,147.757c-2.461,0-3.817,0.747-4.403,2.241s-0.711,5.523-0.711,12.085V171h10v-8.917
		c0-6.034-0.305-9.932-0.949-11.689S559.777,147.757,557.786,147.757z"/>
	<path display="inline" d="M415.755,147.757c-2.168,0-3.523,0.806-4.167,2.417c-0.646,1.612-0.916,5.669-0.916,12.173v50.273
		c0,6.271,0.314,10.284,1.047,12.042c0.732,1.758,2.157,2.637,4.325,2.637c2.227,0,3.81-0.908,4.484-2.725
		c0.673-1.816,1.144-6.182,1.144-13.096v-49.131c0-6.034-0.528-9.976-1.289-11.821C419.621,148.68,417.981,147.757,415.755,147.757z
		"/>
	<path display="inline" d="M-31.328-23v442h766V-23H-31.328z M167.706,246H111.5L90.12,104h39.023
		c4.535,39,7.773,72.136,9.712,99.267c1.912-27.421,3.94-51.652,6.088-72.919L147.513,104h39.023L167.706,246z M228.672,246h-37V129
		h37V246z M228.672,122h-37v-18h37V122z M312.571,232.879c-2.461,4.834-6.578,8.557-12.349,11.162
		c-5.772,2.607-12.73,3.912-20.874,3.912c-9.024,0-16.743-1.406-23.159-4.219s-10.669-6.621-13.071-11.426
		c-2.403-4.805-3.447-12.07-3.447-21.797V205h31v7.269c0,6.271,0.471,10.342,1.262,12.217s2.396,2.812,4.74,2.812
		c2.519,0,4.295-0.629,5.292-1.891c0.996-1.259,1.504-3.911,1.504-7.954c0-5.566-0.641-9.053-1.929-10.459
		c-1.349-1.406-8.23-5.566-20.652-12.48c-10.43-5.858-16.786-11.176-19.071-15.952c-2.285-4.775-3.427-10.444-3.427-17.007
		c0-9.316,1.23-16.186,3.691-20.61c2.461-4.423,6.636-7.836,12.525-10.239c5.889-2.402,12.729-3.604,20.522-3.604
		c7.734,0,14.311,0.982,19.731,2.944c5.419,1.964,9.58,4.557,12.48,7.778c2.9,3.223,4.725,6.211,5.34,8.965
		c0.615,2.755,0.99,7.062,0.99,12.92V166h-32v-5.85c0-5.39-0.107-8.803-0.722-10.239c-0.615-1.435-2.053-2.153-4.514-2.153
		c-1.992,0-3.437,0.659-4.432,1.978c-0.997,1.318-1.469,3.296-1.469,5.933c0,3.575,0.261,6.196,0.759,7.866
		c0.497,1.67,1.998,3.502,4.489,5.493c2.49,1.993,7.606,4.893,15.34,8.701c10.312,5.04,17.081,9.786,20.304,14.238
		c3.222,4.454,4.834,10.929,4.834,19.424C316.262,220.882,315.032,228.045,312.571,232.879z M362.672,246h-37V129h37V246z
		 M362.672,122h-37v-18h37V122z M456.672,213.324c0,8.556-0.463,14.928-1.606,19.116c-1.143,4.19-3.769,7.822-7.988,10.898
		s-9.202,4.615-15.002,4.615c-4.161,0-8.029-0.911-11.632-2.73c-3.604-1.82-6.893-4.472-9.881-8.112l-2.278,8.89h-33.612V104h36
		v33.232c3-3.406,6.145-5.945,9.749-7.619c3.604-1.672,7.489-2.51,11.708-2.51c4.863,0,9.069,0.762,12.644,2.285
		c3.573,1.524,6.292,3.663,8.167,6.416c1.875,2.755,2.891,5.449,3.273,8.086c0.381,2.637,0.46,8.262,0.46,16.875V213.324z
		 M504.672,246h-36V104h36V246z M598.672,190h-46v24.818c0,5.273,0.213,8.672,0.975,10.196s2.144,2.285,4.312,2.285
		c2.694,0,4.469-1.012,5.378-3.033c0.908-2.021,1.336-5.932,1.336-11.733V197h34v8.765c0,7.207-0.639,12.744-1.547,16.612
		c-0.908,3.867-3.124,7.998-6.464,12.393s-7.619,7.689-12.746,9.887c-5.128,2.197-11.58,3.297-19.314,3.297
		c-7.501,0-14.133-1.086-19.875-3.252c-5.743-2.168-10.216-5.143-13.409-8.922c-3.194-3.779-5.487-7.938-6.717-12.48
		c-1.23-4.54-1.927-11.146-1.927-19.819v-34.014c0-10.195,1.455-18.237,4.209-24.126c2.754-5.889,7.305-10.4,13.575-13.535
		c6.27-3.134,13.496-4.702,21.641-4.702c9.961,0,18.188,1.89,24.663,5.669c6.474,3.779,11.204,8.789,13.812,15.029
		c2.606,6.24,4.101,15.016,4.101,26.323V190z"/>
</g>
<g id="lucida-type" display="none">
	<path display="inline" d="M620.029,177.232c-5.029,0-9.082,1.634-12.158,4.955c-3.076,3.322-4.907,7.812-5.493,13.812h33.398
		C635.776,184,630.527,177.232,620.029,177.232z"/>
	<path display="inline" d="M440.366,182.927c-3.076,0-6.04,0.955-8.848,2.861c-2.808,1.908-5.847,5.233-8.847,9.977v25.896
		c2,2.054,4.317,3.813,7.199,5.281c2.881,1.468,5.698,2.2,8.434,2.2c3.174,0,5.999-0.904,8.464-2.714s4.325-4.804,5.569-8.986
		c1.246-4.182,1.87-8.986,1.87-14.415c0-7.043-1.257-12.153-3.771-15.332S444.565,182.927,440.366,182.927z"/>
	<path display="inline" d="M-31.328-23v442h766V-23H-31.328z M84.995,244h-21.68l-31.86-108h22.594l24.044,81.809L104.404,136
		h15.454L84.995,244z M185.672,244h-21v-65h-29v-14h50V244z M185.672,150h-21v-21h21V150z M287.876,233.439
		c-2.783,3.878-6.983,6.952-12.598,9.221c-5.616,2.267-11.964,3.402-19.043,3.402c-3.028,0-6.857-0.158-11.398-0.475
		c-4.541-0.315-12.165-1.664-22.165-4.044v-16.38c12,4.312,21.945,6.469,29.123,6.469c4.785,0,8.677-0.722,11.632-2.168
		c2.954-1.445,4.442-3.688,4.442-6.727c0-1.864-0.652-3.382-1.967-4.559c-1.364-1.176-3.261-2.254-5.696-3.235l-17.002-6.718
		c-13.287-5.277-19.928-12.289-19.928-21.035c0-4.495,1.489-8.648,4.468-12.459c2.978-3.811,7.006-6.742,12.085-8.794
		c5.078-2.052,12.569-3.079,22.14-3.079c7.031,0,14.703,0.999,24.703,2.997v16.668c-10-3.49-18.43-5.237-25.362-5.237
		c-4.444,0-8.166,0.59-10.997,1.771c-2.833,1.18-4.29,2.901-4.29,5.162c0,1.377,0.479,2.557,1.48,3.54
		c1,0.984,4.054,2.532,9.181,4.646l18.818,7.7c6.592,2.684,11.007,5.757,13.254,9.221c2.197,3.513,3.295,7.293,3.295,11.342
		C292.052,225.304,290.659,229.561,287.876,233.439z M366.672,244h-22v-65h-29v-14h51V244z M366.672,150h-22v-21h22V150z
		 M468.601,234.15c-6.078,7.941-14.271,11.912-24.572,11.912c-4.248,0-8.155-0.602-11.719-2.188
		c-3.564-1.586-6.764-3.875-9.595-6.875h-0.879l-2.71,7h-18.454V129h22v35.69L421.836,180h0.879c2.93-5,5.677-8.558,8.239-10.667
		c2.564-2.108,5.151-3.764,7.764-4.819c2.612-1.054,5.555-1.618,8.826-1.618c9.13,0,16.443,3.61,21.936,10.868
		c5.494,7.258,8.24,16.888,8.24,28.91C477.72,215.723,474.681,226.209,468.601,234.15z M540.672,244h-22V143h-29v-14h51V244z
		 M656.672,211h-53.635c0.634,6,3.394,10.976,8.276,14.199c4.882,3.223,10.777,4.719,17.809,4.719c8.154,0,17.55-1.994,27.55-5.756
		v16.773c-12,3.416-23.254,5.127-32.677,5.127c-8.888,0-16.681-1.65-23.443-4.949c-6.763-3.298-11.959-8.186-15.621-14.66
		c-3.662-6.476-5.485-13.746-5.485-21.81c0-7.771,1.713-14.978,5.131-21.625c3.417-6.647,8.399-11.668,14.943-15.065
		c6.543-3.396,13.745-5.095,21.607-5.095c10.888,0,19.494,3.497,25.939,10.49c6.445,6.993,9.605,16.7,9.605,29.122V211z"/>
</g>
<g opacity="0.9">
	<path d="M541.891,182.201c-9.9,0-15.301,6.799-15.9,13.799h29.699C555.84,189,549.99,182.201,541.891,182.201z"/>
	<path d="M413.042,186.15c-11.25,0-18,7.5-18,18.449c0,10.95,6.75,18.449,18,18.449s17.999-7.5,17.999-18.449
		C431.041,193.65,424.292,186.15,413.042,186.15z"/>
	<path d="M-31.328-23v442h766V-23H-31.328z M171.279,241h-18.75l-42.448-106h26.699l26.249,69h0.3l26.699-69h25.049L171.279,241z
		 M247.672,241h-23v-73h23V241z M236.345,158.251c-7.2,0-13.049-5.85-13.049-13.049s5.85-13.049,13.049-13.049
		s13.05,5.85,13.05,13.049S243.544,158.251,236.345,158.251z M288.094,242.848c-10.199,0-21.449-2.549-28.649-9.898l13.65-15.15
		c4.2,5.099,9.149,7.95,15.899,7.95c5.1,0,10.2-1.351,10.2-5.25c0-11.699-37.948-1.8-37.948-29.549
		c0-17.099,15.299-24.599,30.599-24.599c9.6,0,20.249,2.4,26.999,9.6l-13.799,13.649c-3.3-4.05-7.65-6.15-13.05-6.15
		c-3.75,0-8.25,1.65-8.25,6c0,10.799,37.948,1.65,37.948,29.398C321.692,237.449,303.693,242.848,288.094,242.848z M355.672,241h-22
		v-73h22V241z M344.793,158.251c-7.2,0-13.049-5.85-13.049-13.049s5.85-13.049,13.049-13.049s13.05,5.85,13.05,13.049
		S351.993,158.251,344.793,158.251z M417.692,242.623c-10.2,0-18.899-5.623-22.349-11.623h-0.671v10h-20V128h22v48h0.471
		c5.1-7,13.799-9.624,23.099-9.624c20.699,0,33.299,18.475,33.299,38.724C453.541,227.148,439.291,242.623,417.692,242.623z
		 M489.672,241h-23V128h23V241z M578.672,212H525.99c1.801,8,8.25,13.924,16.949,13.924c7.35,0,12.299-3.837,16.049-8.937
		l15.75,11.506c-7.199,9.149-19.049,14.376-30.748,14.376c-22.5,0-40.499-15.009-40.499-38.259
		c0-23.249,18.241-38.253,40.741-38.253c20.998,0,34.439,14.994,34.439,38.243V212z"/>
</g>
<rect id="bg_1_" x="-31.328" y="-23" display="none" width="766" height="442"/>
<text transform="matrix(1 0 0 1 109.7817 241.0488)" display="none" fill="#FFFFFF" font-family="'Avenir-Black'" font-size="150">Visible</text>
</svg>
